<svg id="visual" viewBox="0 0 900 600" width="900" height="600" xmlns="http://www.w3.org/2000/svg" xmlns:xlink="http://www.w3.org/1999/xlink" version="1.1"><path d="M0 434L21.5 425.5C43 417 86 400 128.8 392.2C171.7 384.3 214.3 385.7 257.2 392.5C300 399.3 343 411.7 385.8 418.3C428.7 425 471.3 426 514.2 419.5C557 413 600 399 642.8 396.8C685.7 394.7 728.3 404.3 771.2 398.7C814 393 857 372 878.5 361.5L900 351L900 601L878.5 601C857 601 814 601 771.2 601C728.3 601 685.7 601 642.8 601C600 601 557 601 514.2 601C471.3 601 428.7 601 385.8 601C343 601 300 601 257.2 601C214.3 601 171.7 601 128.8 601C86 601 43 601 21.5 601L0 601Z" fill="#dc857f"></path><path d="M0 437L21.5 437.3C43 437.7 86 438.3 128.8 442.5C171.7 446.7 214.3 454.3 257.2 455.3C300 456.3 343 450.7 385.8 444.3C428.7 438 471.3 431 514.2 427.8C557 424.7 600 425.3 642.8 425.5C685.7 425.7 728.3 425.3 771.2 429.5C814 433.7 857 442.3 878.5 446.7L900 451L900 601L878.5 601C857 601 814 601 771.2 601C728.3 601 685.7 601 642.8 601C600 601 557 601 514.2 601C471.3 601 428.7 601 385.8 601C343 601 300 601 257.2 601C214.3 601 171.7 601 128.8 601C86 601 43 601 21.5 601L0 601Z" fill="#ea796a"></path><path d="M0 490L21.5 483.8C43 477.7 86 465.3 128.8 466C171.7 466.7 214.3 480.3 257.2 481.3C300 482.3 343 470.7 385.8 470.3C428.7 470 471.3 481 514.2 482.2C557 483.3 600 474.7 642.8 471.8C685.7 469 728.3 472 771.2 468.8C814 465.7 857 456.3 878.5 451.7L900 447L900 601L878.5 601C857 601 814 601 771.2 601C728.3 601 685.7 601 642.8 601C600 601 557 601 514.2 601C471.3 601 428.7 601 385.8 601C343 601 300 601 257.2 601C214.3 601 171.7 601 128.8 601C86 601 43 601 21.5 601L0 601Z" fill="#f56e52"></path><path d="M0 522L21.5 525.5C43 529 86 536 128.8 537.8C171.7 539.7 214.3 536.3 257.2 527C300 517.7 343 502.3 385.8 500.5C428.7 498.7 471.3 510.3 514.2 515.2C557 520 600 518 642.8 518.7C685.7 519.3 728.3 522.7 771.2 526.7C814 530.7 857 535.3 878.5 537.7L900 540L900 601L878.5 601C857 601 814 601 771.2 601C728.3 601 685.7 601 642.8 601C600 601 557 601 514.2 601C471.3 601 428.7 601 385.8 601C343 601 300 601 257.2 601C214.3 601 171.7 601 128.8 601C86 601 43 601 21.5 601L0 601Z" fill="#fc6435"></path><path d="M0 563L21.5 561C43 559 86 555 128.8 550.2C171.7 545.3 214.3 539.7 257.2 536.2C300 532.7 343 531.3 385.8 533.7C428.7 536 471.3 542 514.2 541.5C557 541 600 534 642.8 537C685.7 540 728.3 553 771.2 553.7C814 554.3 857 542.7 878.5 536.8L900 531L900 601L878.5 601C857 601 814 601 771.2 601C728.3 601 685.7 601 642.8 601C600 601 557 601 514.2 601C471.3 601 428.7 601 385.8 601C343 601 300 601 257.2 601C214.3 601 171.7 601 128.8 601C86 601 43 601 21.5 601L0 601Z" fill="#ff5d00"></path></svg>